<svg width="146" height="37" viewBox="0 0 146 37" fill="none" xmlns="http://www.w3.org/2000/svg">
<path fill-rule="evenodd" clip-rule="evenodd" d="M15.1303 10.1531C17.9157 10.1531 20.2196 12.3501 20.2196 15.0798C20.2196 17.7762 17.9501 20.0065 15.1303 20.0065C12.345 20.0065 10.041 17.8095 10.041 15.0798C10.041 12.3501 12.3106 10.1531 15.1303 10.1531Z" fill="#FF0031"/>
<path fill-rule="evenodd" clip-rule="evenodd" d="M22.4549 9.35414C22.4205 9.32085 22.4205 9.28756 22.3861 9.28756L22.3173 9.1877L22.2829 9.12112C22.2486 9.08783 22.2142 9.05454 22.1798 9.02126L22.1454 8.98797C22.111 8.95468 22.111 8.95468 22.0766 8.92139C22.0422 8.8881 22.0422 8.8881 22.0078 8.85481L21.9391 8.78823L21.8703 8.72166L21.8015 8.65508L21.7327 8.5885L21.664 8.52193C21.6296 8.48864 21.5952 8.48864 21.5952 8.45535L21.5608 8.42206C21.5264 8.38877 21.492 8.35548 21.4576 8.32219L21.4233 8.2889C21.3889 8.25562 21.3545 8.22233 21.3201 8.22233L21.2857 8.18904C21.2513 8.15575 21.2169 8.12246 21.1826 8.12246L21.1482 8.08917C21.1138 8.05588 21.0794 8.0226 21.045 7.98931L21.0106 7.95602C20.9762 7.92273 20.9418 7.88944 20.8731 7.85615C20.8387 7.82286 20.8043 7.78957 20.7355 7.75629H20.7011C20.6667 7.723 20.598 7.68971 20.5636 7.65642H20.5292C20.4948 7.62313 20.426 7.58984 20.3916 7.55655C20.3573 7.52327 20.2885 7.48998 20.2541 7.45669C20.2197 7.4234 20.1509 7.39011 20.1165 7.35682C20.0822 7.32353 20.0134 7.29025 19.979 7.25696C19.8758 7.19038 19.7727 7.1238 19.6695 7.09051C19.0505 6.75763 18.3972 6.52461 17.7438 6.32487L17.6751 6.29159C17.5719 6.2583 17.5375 6.19172 17.5375 6.12514V2.69641C17.5375 1.5646 18.6723 0.76567 19.8071 1.09856C20.6324 1.36487 21.3889 1.66446 22.1454 2.06393C22.4205 2.19708 22.73 2.36352 23.0051 2.52997H23.0395C23.1082 2.56326 23.2114 2.62983 23.2802 2.69641L23.3146 2.7297C23.4865 2.82957 23.6584 2.96272 23.8304 3.06259H23.8648C23.9335 3.12916 24.0023 3.16245 24.1055 3.22903H24.0367C24.1055 3.26232 24.1742 3.3289 24.243 3.36218L24.2774 3.39547C24.3462 3.46205 24.4493 3.52863 24.5181 3.56192H24.5525C24.6213 3.62849 24.6901 3.66178 24.7588 3.72836L24.8276 3.76165C24.8964 3.79494 24.9308 3.86151 24.9995 3.8948L25.0683 3.96138C25.1371 4.02796 25.1715 4.06125 25.2402 4.12782L25.2746 4.16111C25.3434 4.22769 25.4122 4.29427 25.481 4.36084C25.5153 4.39413 25.5153 4.39413 25.5497 4.42742C25.5841 4.46071 25.6529 4.52729 25.6873 4.56058C25.7217 4.59386 25.7561 4.62715 25.7904 4.62715C25.8248 4.66044 25.8592 4.69373 25.928 4.76031C25.9624 4.7936 25.9968 4.82689 25.9968 4.82689C26.0655 4.89346 26.1343 4.96004 26.1687 5.02662C26.2031 5.05991 26.2375 5.09319 26.2719 5.12648C26.3063 5.15977 26.3406 5.19306 26.375 5.22635C26.4094 5.25964 26.4438 5.29293 26.4782 5.32622C26.5126 5.3595 26.547 5.39279 26.5814 5.42608C26.6157 5.45937 26.6501 5.49266 26.6845 5.52595C26.7189 5.55924 26.7533 5.59252 26.7877 5.62581C26.8564 5.69239 26.8908 5.75897 26.9596 5.82554C26.994 5.85883 26.994 5.89212 27.0284 5.92541C27.0628 5.9587 27.0972 6.02528 27.1315 6.05857L27.2003 6.15843C27.2347 6.19172 27.2691 6.2583 27.3035 6.29159L27.3723 6.35816C27.5098 6.52461 27.613 6.69105 27.7505 6.85749L27.7849 6.92407C27.8193 6.99065 27.8537 7.02394 27.8881 7.09051L27.9225 7.15709C28.0944 7.4234 28.2319 7.65642 28.4039 7.92273L28.4383 7.95602C28.4727 8.0226 28.507 8.08917 28.5414 8.15575V8.18904C28.6446 8.38877 28.7821 8.62179 28.8853 8.82152C28.9197 8.8881 28.9541 8.95468 28.9885 9.02126C29.126 9.28756 29.2292 9.55387 29.3323 9.85347L29.3667 9.95334C29.9513 11.5179 30.2608 13.1823 30.2608 14.9466C30.2608 23.0358 21.492 36.2514 14.9241 36.2514C8.3561 36.2514 0 23.1356 0 15.0465C0 8.48864 4.40157 2.82957 10.5569 1.06527C11.6573 0.732381 12.7921 1.53131 12.7921 2.66312C12.7921 2.66312 12.7921 5.25964 12.7921 6.12514C12.7921 6.19172 12.7577 6.2583 12.6545 6.29159C8.52804 7.39011 5.50196 11.1517 5.74267 15.5458C5.98338 20.2728 10.0411 24.101 14.9585 24.1676C20.2197 24.2675 24.5181 20.1397 24.5181 15.0798C24.5181 13.3488 24.0023 11.7176 23.1426 10.3195C23.1082 10.2862 23.1082 10.2529 23.0738 10.2196V10.1864C23.0395 10.1198 23.0051 10.0865 22.9707 10.0532L22.9363 10.0199C22.9019 9.98663 22.8675 9.92005 22.8331 9.88676L22.7988 9.85347C22.7644 9.82018 22.7644 9.78689 22.73 9.78689L22.6956 9.7536C22.6612 9.72032 22.6268 9.65374 22.5924 9.62045L22.558 9.58716C22.5237 9.55387 22.4893 9.4873 22.4549 9.45401V9.35414Z" fill="#231F20"/>
<path d="M145.733 28.6949V25.9652C145.733 25.6323 145.458 25.366 145.114 25.366H139.887C138.443 25.366 137.927 24.9 137.927 23.3687V8.15578C137.927 7.82289 137.652 7.55658 137.308 7.55658H133.319C132.975 7.55658 132.7 7.82289 132.7 8.15578V23.3687C132.7 28.7282 136.208 29.6935 140.128 29.6935C141.744 29.6935 144.083 29.5271 145.08 29.2941C145.561 29.2275 145.733 29.0943 145.733 28.6949ZM128.918 28.6949V25.9652C128.918 25.6323 128.643 25.366 128.299 25.366H122.109C120.665 25.366 120.149 24.9 120.149 23.3687V20.2396H128.024C128.368 20.2396 128.643 19.9732 128.643 19.6404V16.8441C128.643 16.5112 128.368 16.2449 128.024 16.2449H120.149V13.5485C120.149 12.0173 120.665 11.5512 122.109 11.5512H128.299C128.643 11.5512 128.918 11.2849 128.918 10.952V8.22235C128.918 7.82289 128.746 7.68973 128.299 7.62316C127.233 7.49 125.72 7.22369 122.419 7.22369C118.498 7.22369 114.991 8.15578 114.991 13.5152V23.3021C114.991 28.6616 118.464 29.627 122.384 29.627C125.685 29.627 127.233 29.3939 128.299 29.2275C128.746 29.2608 128.918 29.0943 128.918 28.6949ZM110.83 28.3287V8.12249C110.83 7.7896 110.555 7.55658 110.211 7.55658H106.635C106.291 7.55658 106.016 7.7896 106.016 8.12249V20.5724C106.016 20.7722 105.913 20.8387 105.878 20.8387C105.775 20.8387 105.741 20.7722 105.638 20.6057L98.4163 8.45537C98.038 7.82289 97.7629 7.55658 97.144 7.55658H94.0835C93.4301 7.55658 92.9143 8.05591 92.9143 8.68839V28.8613C92.9143 29.1942 93.1894 29.4605 93.5333 29.4605H97.1096C97.4534 29.4605 97.7285 29.1942 97.7285 28.8613V16.9107C97.7285 16.7442 97.7973 16.6777 97.8661 16.6777C97.9693 16.6777 98.0036 16.7442 98.1412 16.9107L105.087 28.5284C105.569 29.3274 106.016 29.4272 106.669 29.4272H109.661C110.314 29.4272 110.83 28.9279 110.83 28.3287ZM83.7673 14.5472C83.7673 16.5445 82.7701 17.3434 79.5721 17.3434C79.2282 17.3434 77.7495 17.3102 77.4057 17.2769V11.6511C77.7839 11.6178 79.3657 11.5512 79.7784 11.5512C82.3231 11.5512 83.7673 12.3834 83.7673 14.181V14.5472ZM89.7163 29.0943C89.7163 28.9945 89.6819 28.8946 89.6132 28.7614L85.0053 20.4393C87.2404 19.5738 88.9254 17.6763 88.9254 14.5472V14.1477C88.9254 8.92141 84.9365 7.25698 79.7784 7.25698C77.5776 7.25698 74.9986 7.42343 73.5887 7.65645C72.6602 7.7896 72.2132 8.05591 72.2132 9.05457V28.828C72.2132 29.1609 72.4883 29.4272 72.8322 29.4272H76.7867C77.1306 29.4272 77.4057 29.1609 77.4057 28.828V21.3714C77.9903 21.3714 78.9187 21.4379 79.5721 21.4379L79.9159 21.4047L84.008 28.8613C84.1456 29.1609 84.2831 29.4605 84.627 29.4605H89.2693C89.5788 29.4272 89.7163 29.2941 89.7163 29.0943ZM68.3962 28.6949V25.9652C68.3962 25.6323 68.1211 25.366 67.7772 25.366H61.5875C60.1433 25.366 59.6275 24.9 59.6275 23.3687V20.2396H67.5021C67.846 20.2396 68.1211 19.9732 68.1211 19.6404V16.8441C68.1211 16.5112 67.846 16.2449 67.5021 16.2449H59.6275V13.5485C59.6275 12.0173 60.1433 11.5512 61.5875 11.5512H67.7772C68.1211 11.5512 68.3962 11.2849 68.3962 10.952V8.22235C68.3962 7.82289 68.2243 7.68973 67.7772 7.62316C66.7112 7.49 65.1982 7.22369 61.897 7.22369C57.9769 7.22369 54.4694 8.15578 54.4694 13.5152V23.3021C54.4694 28.6616 57.9425 29.627 61.8626 29.627C65.1638 29.627 66.7112 29.3939 67.7772 29.2275C68.2243 29.2608 68.3962 29.0943 68.3962 28.6949ZM51.684 7.88947C51.684 7.72302 51.5465 7.55658 51.2026 7.55658H46.5603C46.2164 7.55658 46.0445 7.68973 45.907 7.92275L39.167 17.4766V8.12249C39.167 7.7896 38.8919 7.55658 38.5481 7.55658H34.5592C34.2153 7.55658 33.9402 7.7896 33.9402 8.12249V28.8613C33.9402 29.1942 34.2153 29.4605 34.5592 29.4605H38.5481C38.8919 29.4605 39.167 29.1942 39.167 28.8613V19.3075L45.3568 29.0278C45.4943 29.2608 45.6662 29.4272 46.0101 29.4272H51.237C51.5121 29.4272 51.6496 29.2941 51.6496 29.1276C51.6496 29.0278 51.6152 28.9279 51.5121 28.7947L44.2564 18.2089L51.5121 8.25564C51.6152 8.15578 51.684 7.98933 51.684 7.88947Z" fill="#231F20"/>
</svg>
